<?xml version="1.0" encoding="iso-8859-1"?>
<!-- Generator: Adobe Illustrator 19.0.0, SVG Export Plug-In . SVG Version: 6.00 Build 0)  -->
<svg xmlns="http://www.w3.org/2000/svg" xmlns:xlink="http://www.w3.org/1999/xlink" version="1.1" id="Layer_1" x="0px" y="0px" viewBox="0 0 512 512" style="enable-background:new 0 0 512 512;" xml:space="preserve" width="512px" height="512px">
<g>
	<g>
		<path d="M385.75,176.581l14.305-2.886c0.476-0.091,0.969,0.096,1.255,0.488l23.645,32.487c0.23,0.316,0.484,0.614,0.761,0.891    l20.108,20.106c3.184,3.183,7.365,4.774,11.546,4.774c4.181,0,8.363-1.592,11.546-4.774l38.301-38.298    c3.084-3.084,4.783-7.185,4.783-11.546s-1.698-8.462-4.783-11.547l-20.108-20.105c-0.276-0.276-0.574-0.53-0.89-0.761    l-31.203-22.706c1.08-4.772-0.235-9.983-3.943-13.692l-8.31-8.309c-2.93-2.928-7.678-2.929-10.607,0.001    c-2.929,2.929-2.928,7.678,0,10.606l8.121,8.12l-0.217,0.217l-0.001,0.001l-0.002,0.001l-39.051,39.047    c-1.297-0.058-2.611,0.03-3.917,0.294l-14.305,2.886c-4.875,0.981-9.858-0.079-13.863-2.85c-0.029-0.021-0.056-0.046-0.086-0.067    c-0.413-0.289-0.808-0.594-1.189-0.908c-0.05-0.042-0.101-0.082-0.15-0.125c-0.374-0.316-0.734-0.641-1.071-0.978    c-0.005-0.005-0.011-0.01-0.017-0.016l-26.973-26.971l-5.824-5.823l-0.001-0.001l-4.136-4.136c-2.184-2.183-2.184-5.736,0-7.919    l21.949-21.947c7.948-7.946,7.969-20.869,0.047-28.809c-16.209-16.244-40.588-21.256-61.78-13.04l-2.037-2.036    c25.926-19.243,62.556-16.882,85.822,6.383l37.285,37.281c2.93,2.928,7.678,2.929,10.607-0.001c2.929-2.929,2.928-7.678,0-10.606    l-37.285-37.281c-30.302-30.3-79.069-31.712-111.025-3.213c-1.925,1.717-3.072,4.179-3.145,6.754    c-0.073,2.567,0.926,5.081,2.742,6.897l9.117,9.116c2.788,2.787,7.069,3.528,10.645,1.847c16.273-7.645,35.739-4.23,48.436,8.495    c2.05,2.054,2.034,5.537-0.035,7.605l-21.949,21.947c-7.597,7.597-7.998,19.695-1.223,27.78l-62.096,59.295L81.841,14.862    c-0.302-0.301-0.616-0.585-0.942-0.851c-0.053-0.043-0.11-0.079-0.164-0.122c-0.278-0.22-0.56-0.433-0.854-0.627    c-0.013-0.009-0.027-0.015-0.04-0.024c-2.02-1.327-4.382-2.043-6.855-2.043c-2.479,0-4.846,0.719-6.87,2.052    c-0.008,0.005-0.017,0.01-0.026,0.015c-0.294,0.195-0.577,0.408-0.856,0.628c-0.054,0.042-0.11,0.078-0.163,0.121    c-0.326,0.266-0.641,0.55-0.942,0.851L14.838,64.149c-4.884,4.884-4.884,12.831,0,17.715l25.707,25.704l0.001,0.001l34.593,34.589    c2.93,2.928,7.678,2.929,10.607-0.001c2.929-2.929,2.928-7.678,0-10.606l-29.288-29.285l15.14-15.138    c2.929-2.929,2.929-7.678,0-10.606c-2.93-2.93-7.677-2.929-10.607-0.001L45.85,91.66L27.194,73.006l27.462-27.459l411.82,411.781    l-27.462,27.46l-18.655-18.653l15.14-15.139c2.929-2.929,2.93-7.678,0.001-10.606c-2.929-2.929-7.677-2.93-10.607-0.001    l-15.142,15.14l-80.368-80.361l15.14-15.14c2.929-2.929,2.929-7.678,0-10.606c-2.928-2.929-7.677-2.93-10.606-0.001    l-15.141,15.141L238.408,284.2l15.14-15.139c2.929-2.929,2.929-7.678,0-10.606c-2.929-2.929-7.678-2.93-10.607-0.001    l-15.141,15.14l-80.368-80.361l15.141-15.139c2.929-2.929,2.929-7.678,0-10.606c-2.93-2.93-7.677-2.929-10.607-0.001    l-15.141,15.14l-29.634-29.631c-2.93-2.928-7.678-2.929-10.607,0.001c-2.929,2.929-2.928,7.678,0,10.606L187,254.01L6.565,426.305    c-4.167,3.979-6.498,9.343-6.564,15.104c-0.066,5.761,2.141,11.176,6.214,15.249l30.804,30.801    c4.008,4.008,9.337,6.216,15.005,6.216c5.049,0,9.963-1.833,13.781-5.085c0.546-0.465,1.069-0.958,1.567-1.48l172.313-180.418    l190.472,190.454c2.441,2.44,5.648,3.66,8.855,3.66c3.207,0,6.415-1.221,8.857-3.661l49.291-49.286    c4.884-4.884,4.884-12.831,0-17.715L305.149,238.148l60.811-63.672C372.091,177.157,378.979,177.95,385.75,176.581z     M446.131,134.791l30.787,22.404l19.692,19.689c0.322,0.322,0.39,0.689,0.39,0.94c0,0.251-0.067,0.617-0.389,0.938L458.31,217.06    c-0.518,0.52-1.361,0.521-1.881,0l-19.692-19.69l-22.404-30.784L446.131,134.791z M16.821,446.051    c-1.045-1.045-1.671-2.391-1.798-3.842c-0.018-0.207-0.026-0.417-0.024-0.628c0.019-1.688,0.703-3.261,1.924-4.428l152.62-145.734    l3.255,3.255L18.528,447.757L16.821,446.051z M35.313,464.54l-6.177-6.177l154.27-153.082l5.004,5.004L35.313,464.54z     M56.525,476.75c-0.889,0.931-2.01,1.548-3.239,1.799c-0.41,0.083-0.832,0.126-1.261,0.126c-1.661-0.001-3.224-0.648-4.399-1.824    l-1.705-1.705l153.097-154.255l3.256,3.255L56.525,476.75z M212.637,313.296l-32.242-32.238l17.215-16.439l31.467,31.464    L212.637,313.296z M484.806,439l-7.723,7.721L65.263,34.941l7.722-7.722L250.123,204.34c0.001,0.001,0.001,0.001,0.002,0.002    l11.702,11.7L484.806,439z M294.54,227.54l-28.381-28.378l62.029-59.231l7.089,7.088l18.499,18.499L294.54,227.54z" fill="#f58426"/>
	</g>
</g>
<g>
</g>
<g>
</g>
<g>
</g>
<g>
</g>
<g>
</g>
<g>
</g>
<g>
</g>
<g>
</g>
<g>
</g>
<g>
</g>
<g>
</g>
<g>
</g>
<g>
</g>
<g>
</g>
<g>
</g>
</svg>
