<?xml version="1.0" encoding="iso-8859-1"?>
<!-- Generator: Adobe Illustrator 19.0.0, SVG Export Plug-In . SVG Version: 6.00 Build 0)  -->
<svg xmlns="http://www.w3.org/2000/svg" xmlns:xlink="http://www.w3.org/1999/xlink" version="1.1" id="Layer_1" x="0px" y="0px" viewBox="0 0 511.997 511.997" style="enable-background:new 0 0 511.997 511.997;" xml:space="preserve" width="512px" height="512px">
<g>
	<g>
		<path d="M511.966,388.792c0-0.141,0-0.266-0.016-0.406c-0.016-0.094-0.016-0.188-0.031-0.281    c-0.016-0.156-0.047-0.297-0.062-0.453c-0.016-0.078-0.016-0.156-0.047-0.234c-0.031-0.219-0.078-0.453-0.125-0.672    L436.997,88.084c-1.172-4.75-5.438-8.086-10.344-8.086H85.329c-4.891,0-9.156,3.336-10.344,8.086L0.313,386.745    c-0.062,0.219-0.094,0.453-0.141,0.672c-0.016,0.078-0.016,0.156-0.047,0.25c-0.016,0.141-0.031,0.281-0.062,0.438    c0,0.094-0.016,0.188-0.031,0.281c0,0.141-0.016,0.266-0.016,0.406C0,388.886,0,388.995,0,389.089c0,0.078,0,0.156,0,0.234v32    c0,3.453,1.672,6.703,4.484,8.703c2.828,2,6.438,2.516,9.703,1.375l57.562-20.109l58.093,20.109c2.25,0.797,4.719,0.781,7,0    l57.812-20.109l57.843,20.109c2.25,0.797,4.734,0.797,7,0l57.828-20.109l57.827,20.109c2.281,0.797,4.75,0.797,7,0l57.843-20.109    l57.828,20.109c1.141,0.391,2.328,0.594,3.5,0.594c2.188,0,4.359-0.672,6.172-1.969c2.828-2,4.5-5.25,4.5-8.703v-32    c0.002-0.078,0.002-0.156,0.002-0.234C511.981,388.995,511.981,388.886,511.966,388.792z M486.184,372.777l-42.688-14.859    c-2.266-0.781-4.734-0.781-7,0l-48.889,16.999l-10.609-84.969l43.593-15.076l45.109,15.936L486.184,372.777z M441.716,194.872    l17.781,71.125l-35.328-12.477c-2.266-0.805-4.766-0.812-7.047-0.023l-42.843,14.82l-9.297-74.429l36.547-12.805L441.716,194.872z     M418.341,101.333l17.219,68.875l-30.593-10.5c-2.281-0.781-4.734-0.773-7,0.023l-35.688,12.5l-8.875-70.898H418.341z     M266.655,101.334c0,0,65.25,0,65.25,0l8.719,69.656l-32.656-11.273c-2.25-0.781-4.719-0.781-6.969,0.008l-34.344,11.937V101.334z     M266.654,194.248L266.654,194.248l37.845-13.164l39.062,13.5l9.046,72.296l-38.218-13.367c-2.266-0.797-4.75-0.797-7.016-0.008    l-40.719,14.156V194.248z M266.654,290.245L266.654,290.245l44.204-15.373l44.702,15.639l10.375,83.094l-45.093-15.688    c-2.281-0.781-4.75-0.781-7.016,0l-47.172,16.406V290.245z M180.077,101.334h65.25v70.328l-34.328-11.937    c-2.25-0.789-4.719-0.789-6.984-0.008l-32.641,11.273L180.077,101.334z M245.328,290.246v84.078l-47.172-16.407    c-2.25-0.781-4.719-0.781-7,0l-45.109,15.688l10.391-83.062l44.687-15.67L245.328,290.246z M168.421,194.583l39.062-13.5    l37.843,13.164v73.414l-40.703-14.156c-2.281-0.789-4.75-0.789-7.031,0.008l-38.218,13.391L168.421,194.583z M93.657,101.334    h64.921l-8.859,70.898l-35.688-12.5c-2.266-0.797-4.734-0.805-7-0.023l-30.593,10.5L93.657,101.334z M70.282,194.873    l40.187-13.789L147,193.889l-9.281,74.406l-42.875-14.797c-2.281-0.789-4.75-0.781-7.031,0.023l-35.312,12.477L70.282,194.873z     M46.282,290.807l45.125-15.936L135,289.916l-10.625,85.016l-49.14-17.015c-1.141-0.391-2.312-0.594-3.484-0.594    c-1.188,0-2.391,0.203-3.531,0.594l-42.406,14.828L46.282,290.807z M490.651,406.325l-47.154-16.408c-2.266-0.781-4.734-0.781-7,0    l-57.843,20.109l-57.812-20.109c-2.281-0.781-4.75-0.781-7.016,0l-57.827,20.109l-57.843-20.109c-2.25-0.781-4.719-0.781-7,0    l-57.843,20.125l-58.078-20.125c-1.141-0.391-2.312-0.594-3.484-0.594c-1.188,0-2.391,0.203-3.531,0.594l-46.89,16.391v-9.406    l50.421-17.609l58.093,20.109v0.016c0.125,0.031,0.219,0.062,0.328,0.094c0.203,0.062,0.422,0.125,0.641,0.172    c0.125,0.031,0.25,0.062,0.375,0.078c0.203,0.047,0.422,0.094,0.625,0.125c0.062,0,0.125,0.016,0.188,0.031    c0.109,0.016,0.219,0.016,0.312,0.031c0.078,0,0.141,0,0.219,0.016c0.266,0.016,0.531,0.031,0.812,0.031    c0.172,0,0.344-0.016,0.531-0.031c0.125,0,0.25,0,0.375-0.016c0.188-0.016,0.375-0.047,0.578-0.062    c0.109-0.016,0.219-0.031,0.328-0.047c0.188-0.031,0.375-0.078,0.562-0.125c0.125-0.031,0.234-0.047,0.344-0.078    c0.188-0.047,0.344-0.109,0.531-0.156c0.078-0.031,0.156-0.047,0.25-0.078l57.812-20.109l57.843,20.109    c0.031,0.016,0.094,0.031,0.141,0.047c0.141,0.047,0.297,0.094,0.453,0.141c0.172,0.047,0.344,0.078,0.5,0.125    c0.156,0.031,0.297,0.062,0.438,0.094c0.203,0.031,0.406,0.062,0.594,0.094c0.125,0.016,0.25,0.031,0.375,0.047    c0.344,0.031,0.656,0.047,1,0.047c0.328,0,0.656-0.016,0.984-0.047c0.141-0.016,0.25-0.031,0.375-0.047    c0.203-0.031,0.391-0.062,0.594-0.094c0.141-0.031,0.297-0.062,0.453-0.094c0.156-0.047,0.312-0.078,0.484-0.125    c0.156-0.047,0.312-0.094,0.469-0.141c0.047-0.016,0.094-0.031,0.141-0.047l57.828-20.109l57.827,20.109    c0.094,0.031,0.156,0.047,0.25,0.078c0.172,0.047,0.344,0.109,0.531,0.156c0.109,0.031,0.219,0.047,0.344,0.078    c0.188,0.047,0.375,0.094,0.562,0.125c0.109,0.016,0.219,0.031,0.344,0.047c0.188,0.031,0.375,0.047,0.562,0.062    c0.156,0.016,0.344,0.016,0.5,0.031c0.125,0,0.266,0.016,0.406,0.016c0.266,0,0.531-0.016,0.812-0.031    c0.062-0.016,0.156-0.016,0.234-0.031c0.094,0,0.188-0.016,0.281-0.016c0.062-0.016,0.109-0.031,0.172-0.031    c0.219-0.031,0.453-0.078,0.672-0.125c0.109-0.016,0.234-0.047,0.359-0.078c0.203-0.047,0.422-0.109,0.625-0.172    c0.125-0.031,0.219-0.062,0.344-0.109l57.843-20.109l50.656,17.625V406.325z" fill="#f58426"/>
	</g>
</g>
<g>
</g>
<g>
</g>
<g>
</g>
<g>
</g>
<g>
</g>
<g>
</g>
<g>
</g>
<g>
</g>
<g>
</g>
<g>
</g>
<g>
</g>
<g>
</g>
<g>
</g>
<g>
</g>
<g>
</g>
</svg>
